<?xml version="1.0" encoding="utf-8"?>
<!-- Generator: Adobe Illustrator 24.3.0, SVG Export Plug-In . SVG Version: 6.00 Build 0)  -->
<svg version="1.1" id="Слой_1" xmlns="http://www.w3.org/2000/svg" xmlns:xlink="http://www.w3.org/1999/xlink" x="0px" y="0px"
	 viewBox="0 0 1920 1080" style="enable-background:new 0 0 1920 1080;" xml:space="preserve">
<style type="text/css">
	.st0{fill:#FFFFFF;}
	.st1{fill:#FF0000;}
</style>
<g>
	<path class="st0" d="M875.5,912.5c-53.21,0-104.82-10.24-153.4-30.43c-46.92-19.5-89.06-47.41-125.24-82.96
		c-36.18-35.54-64.58-76.93-84.42-123.01c-20.53-47.7-30.94-98.36-30.94-150.6s10.41-102.9,30.94-150.6
		c19.84-46.08,48.24-87.47,84.42-123.01c36.19-35.55,78.32-63.47,125.24-82.96c48.58-20.19,100.19-30.43,153.4-30.43
		s104.82,10.24,153.4,30.43c46.92,19.5,89.06,47.41,125.24,82.96c36.18,35.54,64.58,76.93,84.42,123.01
		c20.53,47.7,30.94,98.36,30.94,150.6s-10.41,102.9-30.94,150.6c-19.84,46.08-48.24,87.47-84.42,123.01
		c-36.18,35.55-78.32,63.47-125.24,82.96C980.32,902.26,928.71,912.5,875.5,912.5z"/>
	<path class="st1" d="M875.5,145c52.35,0,103.12,10.07,150.9,29.93c46.15,19.18,87.59,46.63,123.18,81.6
		c35.57,34.95,63.5,75.64,83,120.95c20.18,46.88,30.41,96.68,30.41,148.03s-10.23,101.15-30.41,148.03
		c-19.5,45.3-47.43,85.99-83,120.95c-35.59,34.97-77.03,62.42-123.18,81.6C978.62,895.93,927.85,906,875.5,906
		s-103.12-10.07-150.9-29.93c-46.15-19.18-87.59-46.63-123.18-81.6c-35.57-34.95-63.5-75.64-83-120.95
		C498.23,626.65,488,576.84,488,525.5s10.23-101.15,30.41-148.03c19.5-45.3,47.43-85.99,83-120.95
		c35.59-34.97,77.03-62.42,123.18-81.6C772.38,155.07,823.15,145,875.5,145 M875.5,132C654.31,132,475,308.18,475,525.5
		S654.31,919,875.5,919S1276,742.82,1276,525.5S1096.69,132,875.5,132L875.5,132z"/>
</g>
</svg>
