<?xml version="1.0" encoding="utf-8"?>
<!-- Generator: Adobe Illustrator 24.3.0, SVG Export Plug-In . SVG Version: 6.00 Build 0)  -->
<svg version="1.1" id="Слой_1" xmlns="http://www.w3.org/2000/svg" xmlns:xlink="http://www.w3.org/1999/xlink" x="0px" y="0px"
	 viewBox="0 0 1920 1080" style="enable-background:new 0 0 1920 1080;" xml:space="preserve">

<g>
	<circle class="st0" cx="474.5" cy="461.5" r="154"/>
	<path d="M474.5,308c41,0,79.55,15.97,108.54,44.96C612.03,381.95,628,420.5,628,461.5s-15.97,79.55-44.96,108.54
		S515.5,615,474.5,615s-79.55-15.97-108.54-44.96C336.97,541.05,321,502.5,321,461.5s15.97-79.55,44.96-108.54
		C394.95,323.97,433.5,308,474.5,308 M474.5,307C389.17,307,320,376.17,320,461.5S389.17,616,474.5,616S629,546.83,629,461.5
		S559.83,307,474.5,307L474.5,307z"/>
</g>
<g>
	<rect x="638.5" y="307.5" class="st0" width="308" height="308"/>
	<path d="M946,308v307H639V308H946 M947,307H638v309h309V307L947,307z"/>
</g>
<g>
	<ellipse class="st0" cx="1186" cy="461.5" rx="225.5" ry="130"/>
	<path d="M1186,332c124.07,0,225,58.09,225,129.5S1310.07,591,1186,591s-225-58.09-225-129.5S1061.93,332,1186,332 M1186,331
		c-124.82,0-226,58.43-226,130.5S1061.18,592,1186,592s226-58.43,226-130.5S1310.82,331,1186,331L1186,331z"/>
</g>
<polygon class="st1" points="1365.39,627.5 1504.52,331 1671.19,627.5 "/>
<path class="st1" d="M1334.5,704.5"/>
<polyline class="st1" points="257.5,669.5 986.48,669.5 850.5,755.5 1663.29,755.5 "/>
</svg>
